<svg id="Layer_1" data-name="Layer 1" xmlns="http://www.w3.org/2000/svg" viewBox="0 0 197.4 40.57"><defs><style>.cls-1,.cls-2{fill:none;stroke:#231f20;}.cls-2{stroke-miterlimit:10;}</style></defs><path class="cls-1" d="M159.17,266.47h-7V227.56h15.61q6.49,0,10.09,3.25t3.6,9.81a11.36,11.36,0,0,1-3.7,9q-3.69,3.24-10,3.25h-8.57Zm7.61-33.17h-7.61v14.37h7.61a9.43,9.43,0,0,0,6-1.79,7.59,7.59,0,0,0,0-10.82A9.54,9.54,0,0,0,166.78,233.3Z" transform="translate(-151.63 -227.06)"/><path class="cls-1" d="M198.19,260.8h21.49v5.67H191.21V227.56H219v6.08h-20.8v10.23h16v5.81h-16Z" transform="translate(-151.63 -227.06)"/><path class="cls-1" d="M285.12,260.8h21.49v5.67H278.14V227.56h27.78v6.08h-20.8v10.23h16v5.81h-16Z" transform="translate(-151.63 -227.06)"/><path class="cls-1" d="M316.39,266.47V227.56H330.7q7.53,0,11.75,2.52t4.21,8.89a12.22,12.22,0,0,1-2.28,7.7,7.81,7.81,0,0,1-6.56,2.94,5.32,5.32,0,0,1,3.62,1.07,5.64,5.64,0,0,1,1.7,2.66,19.74,19.74,0,0,1,.69,3.32,29.1,29.1,0,0,0,.52,3.07,2.78,2.78,0,0,0,1.24,1.9c.62.37,1.6.3,2.94-.2v4.07a7,7,0,0,1-3.11,1.49,6.43,6.43,0,0,1-3.53-.24,5.82,5.82,0,0,1-2.9-2.46,9.53,9.53,0,0,1-1.17-5.15,27.37,27.37,0,0,0-.35-4.87,4.08,4.08,0,0,0-1.73-2.76,8.8,8.8,0,0,0-4.28-1.11q-2.91-.17-8-.17v16.24Zm7.05-21.22h7a41.09,41.09,0,0,0,5.6-.31,5.12,5.12,0,0,0,3.28-1.52,5.77,5.77,0,0,0,1.07-3.9c0-2-.43-3.41-1.31-4.29a6.4,6.4,0,0,0-3.84-1.62,51.13,51.13,0,0,0-6.18-.31h-5.6Z" transform="translate(-151.63 -227.06)"/><polygon class="cls-2" points="116.74 17.04 100.81 17.04 100.81 0.5 93.76 0.5 93.76 17.04 77.83 17.04 77.83 22.86 93.76 22.86 93.76 39.41 100.81 39.41 100.81 22.86 116.74 22.86 116.74 17.04"/></svg>