<svg id="Layer_1" data-name="Layer 1" xmlns="http://www.w3.org/2000/svg" viewBox="0 0 72.65 72.82"><path d="M316.11,360.8l0,.15a.92.92,0,0,0-.38,0,.36.36,0,0,0-.22.2,2.06,2.06,0,0,0-.15.46l-.46,2.12a5.36,5.36,0,0,1-.25.87,2.12,2.12,0,0,1-.38.61,1.37,1.37,0,0,1-.65.38,1.77,1.77,0,0,1-.89,0,3.68,3.68,0,0,1-.66-.23,1.28,1.28,0,0,1-.51-.44,1.38,1.38,0,0,1-.25-.5,1.7,1.7,0,0,1,0-.61,5.51,5.51,0,0,1,.14-.83l.49-2.3a1.43,1.43,0,0,0,0-.41.27.27,0,0,0-.13-.21,1.07,1.07,0,0,0-.36-.14l0-.15.44.11.57.14.56.11.45.08,0,.15a1.48,1.48,0,0,0-.39,0,.28.28,0,0,0-.21.14,1.34,1.34,0,0,0-.13.39l-.55,2.54a4.68,4.68,0,0,0-.11.69,1.8,1.8,0,0,0,0,.58.86.86,0,0,0,.26.43,1.17,1.17,0,0,0,.56.26,1.3,1.3,0,0,0,.89-.06,1.39,1.39,0,0,0,.56-.59,3.42,3.42,0,0,0,.34-1l.47-2.17a1.57,1.57,0,0,0,0-.5.41.41,0,0,0-.15-.29,1.07,1.07,0,0,0-.4-.18l0-.15.35.1.4.09.37.07Z" transform="translate(-269.83 -359.79)"/><path d="M318.13,364.3a1.27,1.27,0,0,0,0,.2l-1.27.86a1.59,1.59,0,0,0-.51.49.35.35,0,0,0,0,.38,1,1,0,0,0,.41.29l-.06.14-.22-.1-.27-.11-.27-.11-.22-.08-.34-.13-.28-.09.05-.14a1.1,1.1,0,0,0,.53-.06,2.4,2.4,0,0,0,.61-.32Zm.66-2.53-.06.15a.86.86,0,0,0-.44-.1c-.07,0-.09.1-.07.23l1.1,5.05a1.47,1.47,0,0,0,.12.36.52.52,0,0,0,.21.17l-.06.15-.3-.14-.41-.17-.59-.22-.45-.15.06-.15a1.45,1.45,0,0,0,.45.13c.08,0,.1-.07.08-.2l-1.12-5.12a1.45,1.45,0,0,0-.11-.35.4.4,0,0,0-.22-.17l.06-.15.31.14.41.17.57.21Zm2.52,1-.05.14a1,1,0,0,0-.51.05,3.16,3.16,0,0,0-.57.3l-1.76,1.19,0-.2,1.2-.81a2,2,0,0,0,.53-.47.32.32,0,0,0,0-.35.88.88,0,0,0-.39-.27l.05-.14.28.12.29.12.26.1.34.13Z" transform="translate(-269.83 -359.79)"/><path d="M326,365.4a2.81,2.81,0,0,1,1.34,1.7,2.54,2.54,0,0,1-.51,2,2.9,2.9,0,0,1-1.06,1,2.33,2.33,0,0,1-1.33.26,3.25,3.25,0,0,1-1.45-.56l-.24-.18-.33-.23-.3-.2-.47-.31a3.85,3.85,0,0,0-.38-.23l.08-.13a1.28,1.28,0,0,0,.36.16.24.24,0,0,0,.24-.05,1.66,1.66,0,0,0,.26-.32l2.06-3.09a1.41,1.41,0,0,0,.19-.36.28.28,0,0,0,0-.25,1.6,1.6,0,0,0-.29-.26l.09-.12.36.26.45.31.51.32Zm-.18,0c-.2-.13-.34-.18-.45-.15s-.23.16-.37.38l-2.08,3.12a.83.83,0,0,0-.2.49c0,.11.11.23.3.35a2.07,2.07,0,0,0,1.15.41,1.58,1.58,0,0,0,1-.39,5,5,0,0,0,.92-1.06,4.48,4.48,0,0,0,.61-1.26,1.56,1.56,0,0,0-.05-1A2.07,2.07,0,0,0,325.78,365.44Z" transform="translate(-269.83 -359.79)"/><path d="M329.65,369.94a1.34,1.34,0,0,1,.51,1,1.75,1.75,0,0,1-.57,1.19l-1.92-1.73.08-.11,1.35,1.2a2.85,2.85,0,0,0,.41-.54,1.42,1.42,0,0,0,.18-.51.44.44,0,0,0-.16-.39.64.64,0,0,0-.64-.12,2.2,2.2,0,0,0-.95.62v0l-.17.16-.17.18a2,2,0,0,0-.46.75,1.21,1.21,0,0,0-.05.67.88.88,0,0,0,.27.47,1.19,1.19,0,0,0,.33.22,1.16,1.16,0,0,0,.42.08,1.31,1.31,0,0,0,.51-.11l.07.15a2.15,2.15,0,0,1-.54.19,1.45,1.45,0,0,1-.62,0,1.47,1.47,0,0,1-.62-.34,1.73,1.73,0,0,1-.52-.79,1.54,1.54,0,0,1,0-.9,2.35,2.35,0,0,1,.55-.92,2.69,2.69,0,0,1,.92-.71,1.73,1.73,0,0,1,.94-.13A1.69,1.69,0,0,1,329.65,369.94Z" transform="translate(-269.83 -359.79)"/><path d="M332.23,372.54a1.23,1.23,0,0,1,.28.45,2,2,0,0,1,.09.35q0,.32.39.06l.11.12-.39.32-.59.52-.11-.13a2.51,2.51,0,0,0,.3-.47,1.1,1.1,0,0,0,.11-.53.8.8,0,0,0-.22-.51.65.65,0,0,0-.38-.22.52.52,0,0,0-.42.15.59.59,0,0,0-.2.36,1.84,1.84,0,0,0,0,.47c0,.17.05.35.08.55a4.56,4.56,0,0,1,.05.62,1.31,1.31,0,0,1-.07.53.94.94,0,0,1-.3.45,1,1,0,0,1-.56.25,1.23,1.23,0,0,1-.59-.12,1.58,1.58,0,0,1-.53-.41,1.31,1.31,0,0,1-.2-.28,1.11,1.11,0,0,1-.13-.27,1.16,1.16,0,0,1,0-.18l0-.18a.09.09,0,0,0-.1-.09.51.51,0,0,0-.24.09l-.11-.12.45-.37.69-.61.11.13a3.65,3.65,0,0,0-.44.6,1,1,0,0,0-.16.56.82.82,0,0,0,.24.54.86.86,0,0,0,.24.17.65.65,0,0,0,.31,0,.72.72,0,0,0,.35-.19.69.69,0,0,0,.25-.53,4,4,0,0,0-.05-.74c0-.21,0-.41-.05-.6a1.38,1.38,0,0,1,.05-.54.88.88,0,0,1,.3-.46.9.9,0,0,1,.52-.25,1,1,0,0,1,.53.11A1.31,1.31,0,0,1,332.23,372.54Z" transform="translate(-269.83 -359.79)"/><path d="M334.5,375.38l-2.61,1.94a.58.58,0,0,0-.27.36.61.61,0,0,0,.16.4l-.13.09-.22-.33-.31-.44c-.11-.14-.22-.29-.34-.43a4,4,0,0,0-.26-.31l.13-.1a.61.61,0,0,0,.34.27.57.57,0,0,0,.42-.16l1.89-1.4a.92.92,0,0,0,.33-.39.49.49,0,0,0-.13-.44l.13-.09c.08.13.17.26.26.38a2.89,2.89,0,0,0,.31.37A2.56,2.56,0,0,0,334.5,375.38Zm1.18-1.44a.56.56,0,0,1,.12.4.51.51,0,0,1-.2.35.53.53,0,0,1-.39.09.57.57,0,0,1-.34-.23.5.5,0,0,1-.12-.4.47.47,0,0,1,.2-.34.43.43,0,0,1,.38-.09A.53.53,0,0,1,335.68,373.94Z" transform="translate(-269.83 -359.79)"/><path d="M331.36,380.32a4.08,4.08,0,0,1-.33-.71A1.58,1.58,0,0,1,331,379a.53.53,0,0,1,.26-.4.57.57,0,0,1,.48,0,1.45,1.45,0,0,1,.55.36l-.07.11a.52.52,0,0,0-.31-.1.75.75,0,0,0-.33.1.57.57,0,0,0-.28.53,1.56,1.56,0,0,0,.26.78,2.29,2.29,0,0,0,.41.51,1.22,1.22,0,0,0,.49.28.68.68,0,0,0,.53-.1.54.54,0,0,0,.26-.35A1,1,0,0,0,333,380l-.27-.45a2.49,2.49,0,0,1-.21-.44.82.82,0,0,1,0-.4.47.47,0,0,1,.25-.31.69.69,0,0,1,.55-.07,2.27,2.27,0,0,1,.8.4v.11a3.81,3.81,0,0,0-.41-.2.36.36,0,0,0-.35,0q-.19.12,0,.42l.46.76a1.71,1.71,0,0,1,.25.6,1,1,0,0,1,0,.54.84.84,0,0,1-.37.43,1.07,1.07,0,0,1-.69.14,1.47,1.47,0,0,1-.78-.33A3,3,0,0,1,331.36,380.32Zm2.6-1.51a2,2,0,0,1-.25-.67,1.08,1.08,0,0,1,.07-.62,1.17,1.17,0,0,1,.49-.5,1.22,1.22,0,0,1,.67-.2,1,1,0,0,1,.59.23,1.74,1.74,0,0,1,.47.53,2.16,2.16,0,0,1,.26.67,1.1,1.1,0,0,1-.09.62,1.17,1.17,0,0,1-.49.5,1.11,1.11,0,0,1-.67.19,1.05,1.05,0,0,1-.58-.21A2.08,2.08,0,0,1,334,378.81Zm.12-.07a.46.46,0,0,0,.4.23,1.68,1.68,0,0,0,.78-.31,1.75,1.75,0,0,0,.64-.54.47.47,0,0,0,0-.47.44.44,0,0,0-.4-.22,1.54,1.54,0,0,0-.78.3,1.59,1.59,0,0,0-.64.55A.47.47,0,0,0,334.08,378.74Zm1.95.12,0-.15a1.06,1.06,0,0,1,.57.08.89.89,0,0,1,.45.35.51.51,0,0,1,.07.35.44.44,0,0,1-.22.27.42.42,0,0,1-.34.07.48.48,0,0,1-.22-.17.33.33,0,0,1,0-.24.34.34,0,0,1,.16-.23,1,1,0,0,1,.44-.14l0,.09a1.58,1.58,0,0,0-.44-.25A1.45,1.45,0,0,0,336,378.86Z" transform="translate(-269.83 -359.79)"/><path d="M338.53,382.53a1.29,1.29,0,0,1,.12.49.77.77,0,0,1-.07.37.71.71,0,0,1-.26.32,2.26,2.26,0,0,1-.53.3l-1.85.8a.55.55,0,0,0-.34.28.59.59,0,0,0,.06.43l-.14.06-.14-.37c-.07-.17-.13-.34-.2-.5s-.14-.31-.22-.46l-.16-.34.14-.06a.49.49,0,0,0,.25.29.63.63,0,0,0,.43-.08l2-.88A2.29,2.29,0,0,0,338,383a.63.63,0,0,0,.2-.26.57.57,0,0,0,0-.37.81.81,0,0,0-.34-.39,1.13,1.13,0,0,0-.53-.14,1.52,1.52,0,0,0-.61.13l-1.66.72a.61.61,0,0,0-.35.27.5.5,0,0,0,0,.37l-.14.06-.13-.34c-.06-.15-.12-.31-.19-.47l-.22-.48-.18-.37.14-.07a.61.61,0,0,0,.27.34.56.56,0,0,0,.44-.05l2.16-.94a.91.91,0,0,0,.42-.3.51.51,0,0,0,0-.46l.15-.06c.05.15.1.3.16.44a4.13,4.13,0,0,0,.22.42,2.36,2.36,0,0,0,.23.35l-.75.32a1.26,1.26,0,0,1,.81.23A1.46,1.46,0,0,1,338.53,382.53Z" transform="translate(-269.83 -359.79)"/><path d="M338.48,388a.82.82,0,0,1-.23.76.78.78,0,0,1-.77.19.78.78,0,0,1-.35-.21.68.68,0,0,1-.2-.36.78.78,0,0,1,.22-.76.72.72,0,0,1,.36-.2.85.85,0,0,1,.42,0,.81.81,0,0,1,.34.21A.73.73,0,0,1,338.48,388Z" transform="translate(-269.83 -359.79)"/><path d="M342.48,393.58l-4.57,2.15a.77.77,0,0,0-.36.27.54.54,0,0,0-.09.27h-.15a3.22,3.22,0,0,0,0-.43c0-.16,0-.32,0-.49s0-.4,0-.58,0-.33-.05-.43l.15,0c0,.26.08.42.17.48s.24,0,.49-.08l3.54-1.6.15.11-3.34-1a2.65,2.65,0,0,0-.57-.12.6.6,0,0,0-.35.06.39.39,0,0,0-.16.23,1.54,1.54,0,0,0,0,.4h-.15c0-.15,0-.3,0-.46s0-.29,0-.43,0-.22,0-.32a1.5,1.5,0,0,0,0-.24l.15,0a.85.85,0,0,0,.21.31,1.73,1.73,0,0,0,.53.26l4.6,1.43a.49.49,0,0,1,0,.12A.62.62,0,0,1,342.48,393.58Zm-3.12,1h-.15l-.15-2.23.15.06Z" transform="translate(-269.83 -359.79)"/><path d="M341.08,399a.62.62,0,0,1-.11.37.56.56,0,0,1-.24.22.78.78,0,0,1-.31.06.59.59,0,0,1-.37-.15.47.47,0,0,1-.13-.36.46.46,0,0,1,.13-.31.4.4,0,0,1,.32-.12.44.44,0,0,1,.27.11.79.79,0,0,1,.17.2.21.21,0,0,0,.07-.17.73.73,0,0,0-.11-.38,1.11,1.11,0,0,0-.3-.31,1.53,1.53,0,0,0-.4-.21,1,1,0,0,0-.4-.09l-1.72-.1a.51.51,0,0,0-.5.17,1.06,1.06,0,0,0-.16.56h-.16c0-.12,0-.28.05-.49s0-.44.05-.67,0-.36,0-.54v-.41h.16a.64.64,0,0,0,.09.43.59.59,0,0,0,.42.14l2.35.14a.92.92,0,0,0,.51-.09.46.46,0,0,0,.18-.41h.16a3.59,3.59,0,0,0-.05.46,3.84,3.84,0,0,0,0,.48c0,.14,0,.28.05.41l-.86-.05a2.57,2.57,0,0,1,.41.26,1.4,1.4,0,0,1,.31.38A.85.85,0,0,1,341.08,399Z" transform="translate(-269.83 -359.79)"/><path d="M341.88,401.71l-1.23-.18-.16,1-.14,0,.15-1-2.91-.44a.69.69,0,0,0-.45,0,.45.45,0,0,0-.17.3.46.46,0,0,0,.1.37,1.37,1.37,0,0,0,.49.35l-.08.13a1.51,1.51,0,0,1-.61-.42.79.79,0,0,1-.17-.7,1.16,1.16,0,0,1,.13-.42.79.79,0,0,1,.66-.42,2.44,2.44,0,0,1,.64,0l2.49.38.11-.68.15,0-.11.69,1.09.16a3.49,3.49,0,0,0,0,.44A1.58,1.58,0,0,0,341.88,401.71Z" transform="translate(-269.83 -359.79)"/><path d="M340.63,407.65a2.83,2.83,0,0,1-1.31,1.73,2.61,2.61,0,0,1-2,0,3.06,3.06,0,0,1-1.24-.78,2.39,2.39,0,0,1-.58-1.22,3.8,3.8,0,0,1,.29-1.83c0-.12.09-.24.13-.37s.09-.24.13-.34l.18-.53c.06-.17.1-.32.13-.43l.14.05a1.34,1.34,0,0,0-.07.38.26.26,0,0,0,.12.22,1.65,1.65,0,0,0,.37.17l3.51,1.22a1.9,1.9,0,0,0,.4.1.3.3,0,0,0,.23-.11,1.5,1.5,0,0,0,.17-.34l.14.05c0,.11-.09.25-.16.42a5.17,5.17,0,0,0-.18.51l-.19.57A5.33,5.33,0,0,1,340.63,407.65Zm-.08-.16a.59.59,0,0,0,0-.47.86.86,0,0,0-.45-.27l-3.54-1.23a.92.92,0,0,0-.53-.07.66.66,0,0,0-.27.39,2,2,0,0,0-.1,1.21,1.53,1.53,0,0,0,.62.84,4.62,4.62,0,0,0,1.26.62,4.07,4.07,0,0,0,1.37.28,1.51,1.51,0,0,0,1-.31A2.06,2.06,0,0,0,340.55,407.49Z" transform="translate(-269.83 -359.79)"/><path d="M337.4,411.88l-2.92-1.44a.6.6,0,0,0-.44-.08.61.61,0,0,0-.29.33l-.14-.07c0-.08.11-.19.19-.35s.17-.32.25-.48.16-.33.23-.49l.17-.38.14.07a.61.61,0,0,0-.09.42.58.58,0,0,0,.33.3l2.12,1a.85.85,0,0,0,.49.12.48.48,0,0,0,.34-.31l.14.07a4.1,4.1,0,0,0-.23.4c-.07.16-.13.3-.18.44A2.28,2.28,0,0,0,337.4,411.88Zm1.82.39a.55.55,0,0,1-.3.28.47.47,0,0,1-.4,0,.46.46,0,0,1-.26-.3.54.54,0,0,1,0-.41.55.55,0,0,1,.31-.29.48.48,0,0,1,.39,0,.51.51,0,0,1,.26.3A.56.56,0,0,1,339.22,412.27Z" transform="translate(-269.83 -359.79)"/><path d="M335.63,415a.7.7,0,0,1-.27.27.6.6,0,0,1-.31.08.6.6,0,0,1-.56-.4.43.43,0,0,1,.05-.38.53.53,0,0,1,.26-.21.36.36,0,0,1,.33.05.43.43,0,0,1,.2.22.6.6,0,0,1,.05.26.24.24,0,0,0,.14-.12.66.66,0,0,0,.08-.39,1.24,1.24,0,0,0-.11-.42,1.9,1.9,0,0,0-.26-.37,1.54,1.54,0,0,0-.31-.27l-1.47-.89a.51.51,0,0,0-.53-.08,1.12,1.12,0,0,0-.4.41l-.13-.08.27-.41.36-.57.27-.46.2-.37.13.08a.65.65,0,0,0-.12.42q0,.17.3.33l2,1.22a.9.9,0,0,0,.48.16.49.49,0,0,0,.36-.28l.13.08a4.25,4.25,0,0,0-.25.39,2.91,2.91,0,0,0-.23.42,2,2,0,0,0-.14.39l-.74-.45a2.13,2.13,0,0,1,.23.42,1.18,1.18,0,0,1,.1.48A.88.88,0,0,1,335.63,415Z" transform="translate(-269.83 -359.79)"/><path d="M333.88,417.49a1.38,1.38,0,0,1-.95.58,1.79,1.79,0,0,1-1.23-.47l1.57-2.05.13.07-1.1,1.44a2.77,2.77,0,0,0,.58.36,1.23,1.23,0,0,0,.52.14.48.48,0,0,0,.38-.18.68.68,0,0,0,.06-.66,2.16,2.16,0,0,0-.69-.89h0l-.17-.15-.19-.16a2.18,2.18,0,0,0-.79-.4,1.27,1.27,0,0,0-.67,0,1,1,0,0,0-.46.31,1.16,1.16,0,0,0-.18.35,1,1,0,0,0,0,.42,1.29,1.29,0,0,0,.15.5l-.14.09a1.7,1.7,0,0,1-.23-.53,1.3,1.3,0,0,1,0-.62,1.59,1.59,0,0,1,.29-.64,1.72,1.72,0,0,1,.75-.58,1.52,1.52,0,0,1,.9-.07,2.52,2.52,0,0,1,1,.47,2.73,2.73,0,0,1,.78.87,1.61,1.61,0,0,1,.2.92A1.68,1.68,0,0,1,333.88,417.49Z" transform="translate(-269.83 -359.79)"/><path d="M331.12,420.65a1.84,1.84,0,0,1-.38.31,1.55,1.55,0,0,1-.41.17,1,1,0,0,1-.38,0,.68.68,0,0,1-.32-.18.45.45,0,0,1,0-.66.49.49,0,0,1,.32-.16.4.4,0,0,1,.33.12.48.48,0,0,1,.15.31.6.6,0,0,1-.07.3.55.55,0,0,0,.3,0,.72.72,0,0,0,.31-.21.64.64,0,0,0,.19-.35.89.89,0,0,0,0-.46,1.75,1.75,0,0,0-.25-.55,3,3,0,0,0-.54-.64,2.71,2.71,0,0,0-.82-.59,1,1,0,0,0-.64-.09.94.94,0,0,0-.48.26,1.41,1.41,0,0,0-.21.31,1.17,1.17,0,0,0-.09.42,1.31,1.31,0,0,0,.09.53l-.14.06a1.94,1.94,0,0,1-.18-.53,1.49,1.49,0,0,1,0-.63,1.25,1.25,0,0,1,.37-.61,1.58,1.58,0,0,1,.76-.46,1.67,1.67,0,0,1,.91,0,2.37,2.37,0,0,1,.94.59,2.65,2.65,0,0,1,.63.93,1.77,1.77,0,0,1,.08,1A1.75,1.75,0,0,1,331.12,420.65Z" transform="translate(-269.83 -359.79)"/><path d="M329.38,423.8l-.8-.94-.79.67-.1-.12.79-.67-1.91-2.24a.62.62,0,0,0-.37-.26.4.4,0,0,0-.33.11.46.46,0,0,0-.16.35,1.33,1.33,0,0,0,.14.57l-.14.06a1.49,1.49,0,0,1-.19-.72.8.8,0,0,1,.33-.65,1.33,1.33,0,0,1,.37-.22.82.82,0,0,1,.34-.06.88.88,0,0,1,.44.17,2.71,2.71,0,0,1,.46.45l1.64,1.92.52-.45.1.11-.53.45.71.84a2.91,2.91,0,0,0-.3.31A1.66,1.66,0,0,0,329.38,423.8Z" transform="translate(-269.83 -359.79)"/><path d="M326.32,424.72l-1.92-2.64a.55.55,0,0,0-.35-.27.64.64,0,0,0-.4.15l-.09-.12.33-.22.44-.31c.15-.1.29-.22.44-.33l.32-.25.09.12a.61.61,0,0,0-.27.34.55.55,0,0,0,.15.42l1.38,1.9a1,1,0,0,0,.39.34.51.51,0,0,0,.44-.12l.09.13a3.73,3.73,0,0,0-.39.25,4,4,0,0,0-.37.3A2.61,2.61,0,0,0,326.32,424.72Zm1.43,1.19a.62.62,0,0,1-.41.12.5.5,0,0,1-.34-.21.46.46,0,0,1-.08-.38.53.53,0,0,1,.22-.35.56.56,0,0,1,.41-.11.49.49,0,0,1,.34.2.49.49,0,0,1,.08.39A.51.51,0,0,1,327.75,425.91Z" transform="translate(-269.83 -359.79)"/><path d="M323.71,426.42a1.87,1.87,0,0,1-.88.27,1.43,1.43,0,0,1-.87-.26,2.62,2.62,0,0,1-.8-.89,2.67,2.67,0,0,1-.39-1.14,1.56,1.56,0,0,1,.21-.87,1.94,1.94,0,0,1,.67-.63,1.84,1.84,0,0,1,.88-.27,1.41,1.41,0,0,1,.86.25,2.5,2.5,0,0,1,.79.89,2.57,2.57,0,0,1,.4,1.14,1.44,1.44,0,0,1-.21.88A1.82,1.82,0,0,1,323.71,426.42Zm-.08-.13a.72.72,0,0,0,.33-.7,3.18,3.18,0,0,0-.52-1.38,3.11,3.11,0,0,0-.94-1.12.73.73,0,0,0-.77-.06.74.74,0,0,0-.33.7,3,3,0,0,0,.51,1.37,3.16,3.16,0,0,0,.95,1.13A.73.73,0,0,0,323.63,426.29Z" transform="translate(-269.83 -359.79)"/><path d="M318.94,428.74a1.21,1.21,0,0,1-.48.12,1,1,0,0,1-.38-.08.76.76,0,0,1-.31-.26,2.63,2.63,0,0,1-.29-.54l-.77-1.86a.57.57,0,0,0-.27-.35.58.58,0,0,0-.43.06l-.06-.15.37-.13.5-.2.46-.2.34-.16.07.14a.49.49,0,0,0-.29.24.62.62,0,0,0,.06.44l.85,2.05a2.29,2.29,0,0,0,.19.35.44.44,0,0,0,.25.2.49.49,0,0,0,.37,0,.84.84,0,0,0,.4-.34,1.13,1.13,0,0,0,.15-.53,1.7,1.7,0,0,0-.12-.61l-.69-1.67c-.09-.19-.17-.31-.27-.35a.49.49,0,0,0-.37,0l-.06-.14.34-.13.47-.18.49-.21.38-.18.06.15a.59.59,0,0,0-.35.26.6.6,0,0,0,.05.44l.9,2.18a.91.91,0,0,0,.3.42.5.5,0,0,0,.46,0l.06.15-.44.15-.43.21a2.36,2.36,0,0,0-.35.23l-.31-.76a1.26,1.26,0,0,1-.25.81A1.33,1.33,0,0,1,318.94,428.74Z" transform="translate(-269.83 -359.79)"/><path d="M313.47,428.6a.81.81,0,0,1-.41,0,1,1,0,0,1-.35-.22.78.78,0,0,1-.19-.36.82.82,0,0,1,.23-.76.83.83,0,0,1,.37-.2.86.86,0,0,1,.42,0,.74.74,0,0,1,.34.22.78.78,0,0,1,.19.36.81.81,0,0,1,0,.41.91.91,0,0,1-.22.35A.78.78,0,0,1,313.47,428.6Z" transform="translate(-269.83 -359.79)"/><path d="M307.46,432.61a1.94,1.94,0,0,1-.81-.11,3.6,3.6,0,0,1-.58-.32.33.33,0,0,0-.15-.07c-.09,0-.15.16-.17.47h-.17c0-.19,0-.42,0-.69s0-.62,0-1.07h.17c.05.23.11.45.17.66a1.34,1.34,0,0,0,.32.51,1.41,1.41,0,0,0,.55.35,1.71,1.71,0,0,0,.67.1,1.22,1.22,0,0,0,.68-.22,1.66,1.66,0,0,0,.48-.56,3,3,0,0,0,.28-.85,5.82,5.82,0,0,0,.06-1.05,3.57,3.57,0,0,0-.51-1.95,1.37,1.37,0,0,0-1.28-.57,1,1,0,0,0-.41.08,1.41,1.41,0,0,0-.28.15.64.64,0,0,0-.16.19.51.51,0,0,0,0,.23l0,.72a1.56,1.56,0,0,0,.08.48.32.32,0,0,0,.23.19,1.52,1.52,0,0,0,.48,0v.15h-.75l-.38,0a3.58,3.58,0,0,0-.49,0l-.37,0v-.15a.45.45,0,0,0,.23-.07.26.26,0,0,0,.1-.18,2.73,2.73,0,0,0,0-.41l-.06-1.49h.15a1.08,1.08,0,0,0,.07.27c0,.1.08.15.15.14l.11,0,.18-.13a2.9,2.9,0,0,1,.54-.31,2,2,0,0,1,.64-.14,2.87,2.87,0,0,1,1.38.26,2.14,2.14,0,0,1,.91.88,3.42,3.42,0,0,1,.36,1.43,3.23,3.23,0,0,1-.26,1.52,2.44,2.44,0,0,1-.85,1A2.37,2.37,0,0,1,307.46,432.61Z" transform="translate(-269.83 -359.79)"/><path d="M301.9,431a.7.7,0,0,1-.36-.12.72.72,0,0,1-.21-.25.68.68,0,0,1-.05-.32.54.54,0,0,1,.16-.35.45.45,0,0,1,.37-.13.47.47,0,0,1,.3.14.41.41,0,0,1,.11.32.42.42,0,0,1-.12.27.56.56,0,0,1-.21.17.28.28,0,0,0,.17.07.67.67,0,0,0,.39-.1,1.1,1.1,0,0,0,.32-.29A1.5,1.5,0,0,0,303,430a1.29,1.29,0,0,0,.11-.39l.15-1.72a.52.52,0,0,0-.16-.51,1.08,1.08,0,0,0-.55-.17l0-.16.48.06.67.07.54,0,.41,0v.15a.62.62,0,0,0-.42.08.59.59,0,0,0-.17.42l-.21,2.34a1,1,0,0,0,.07.51.51.51,0,0,0,.41.2v.15l-.46-.06a4,4,0,0,0-.48,0l-.41,0,.07-.85a2,2,0,0,1-.27.39,1.14,1.14,0,0,1-.39.3A.8.8,0,0,1,301.9,431Z" transform="translate(-269.83 -359.79)"/><path d="M300.36,426.67a1.09,1.09,0,0,1,.51.22.77.77,0,0,1,.26.39,1,1,0,0,1,0,.5.89.89,0,0,1-.26.49,1,1,0,0,1-.44.25,3,3,0,0,1-.54.11l-.52.06a1.85,1.85,0,0,0-.42.1.36.36,0,0,0-.21.24l-.1.5a1.07,1.07,0,0,0,0,.44.48.48,0,0,0,.18.27.82.82,0,0,0,.33.14,2.13,2.13,0,0,0,.37,0,.57.57,0,0,0,.34-.13.51.51,0,0,1-.23-.23.44.44,0,0,1,0-.34.37.37,0,0,1,.2-.29.49.49,0,0,1,.36-.05.4.4,0,0,1,.31.21.49.49,0,0,1,0,.36.49.49,0,0,1-.16.3,1.15,1.15,0,0,1-.31.18,1.61,1.61,0,0,1-.49.11,2.3,2.3,0,0,1-.63,0,1.9,1.9,0,0,1-.54-.18,1.1,1.1,0,0,1-.34-.3.78.78,0,0,1-.15-.47,3,3,0,0,1,.06-.63l.42-2a.6.6,0,0,0,0-.27.18.18,0,0,0-.14-.11.38.38,0,0,0-.15,0l-.19.08,0-.14a1.78,1.78,0,0,1,.36-.14,1.15,1.15,0,0,1,.41,0,.84.84,0,0,1,.37.15.44.44,0,0,1,.17.26.73.73,0,0,1,0,.36,1.48,1.48,0,0,1,.55-.38A1.19,1.19,0,0,1,300.36,426.67Zm-.42.28a.65.65,0,0,0-.41,0,1.11,1.11,0,0,0-.41.28l-.29,1.46a.7.7,0,0,1,.27-.15l.37-.11a2.32,2.32,0,0,0,.37-.13.9.9,0,0,0,.52-.66.66.66,0,0,0-.06-.49A.48.48,0,0,0,299.94,427Z" transform="translate(-269.83 -359.79)"/><path d="M294.14,429.15a1.19,1.19,0,0,1-.6-.43,1.46,1.46,0,0,1-.26-.75,2.7,2.7,0,0,1,.16-1,3.25,3.25,0,0,1,.38-.77,2.23,2.23,0,0,1,.53-.57,1.61,1.61,0,0,1,.66-.28,1.66,1.66,0,0,1,.78.08,1,1,0,0,1,.5.33.81.81,0,0,1,.23.45l-.11.08a.76.76,0,0,0-.16-.38.72.72,0,0,0-.38-.26.79.79,0,0,0-.66,0,1.44,1.44,0,0,0-.51.55,4.94,4.94,0,0,0-.4.89,5.18,5.18,0,0,0-.24,1,1.16,1.16,0,0,0,.08.62.55.55,0,0,0,.35.3.83.83,0,0,0,.67-.05,1.37,1.37,0,0,0,.58-.66l0,.17a1.47,1.47,0,0,1-.72.68A1.22,1.22,0,0,1,294.14,429.15Zm1.13.36,1.49-4.35a.49.49,0,0,0,0-.48,1.06,1.06,0,0,0-.46-.27l.05-.15.45.17.62.23.47.15.35.1,0,.15a.39.39,0,0,0-.61.3l-1.22,3.56a.87.87,0,0,0-.05.51c0,.13.15.23.35.29l-.05.15-.44-.17-.45-.13Z" transform="translate(-269.83 -359.79)"/><path d="M289.91,429.44l1.24-2.44a1.2,1.2,0,0,1-.77.34,1.53,1.53,0,0,1-.73-.16,1.33,1.33,0,0,1-.4-.29,1.05,1.05,0,0,1-.19-.34.8.8,0,0,1,0-.41,3.07,3.07,0,0,1,.22-.57l.91-1.8a.54.54,0,0,0,.09-.43.61.61,0,0,0-.33-.29l.08-.14.35.2.46.25.47.22.34.15-.08.14a.44.44,0,0,0-.37-.06.6.6,0,0,0-.28.33l-1,2a2.13,2.13,0,0,0-.14.37.53.53,0,0,0,0,.33.55.55,0,0,0,.28.26.8.8,0,0,0,.5.08,1,1,0,0,0,.49-.23,1.29,1.29,0,0,0,.39-.49l.82-1.62a.67.67,0,0,0,.1-.43.49.49,0,0,0-.27-.26l.07-.14.32.18.44.24.49.23.37.17-.07.14a.61.61,0,0,0-.42-.09c-.11,0-.21.14-.31.33L291,429a.88.88,0,0,0-.12.5.48.48,0,0,0,.3.33l-.07.14-.4-.23-.43-.19A2.52,2.52,0,0,0,289.91,429.44Z" transform="translate(-269.83 -359.79)"/><path d="M286,427.1a.51.51,0,0,1-.25-.33.49.49,0,0,1,.06-.39.47.47,0,0,1,.33-.22.51.51,0,0,1,.41.09.55.55,0,0,1,.25.33.49.49,0,0,1-.07.39.43.43,0,0,1-.32.22A.51.51,0,0,1,286,427.1Zm.6-1.76,1.76-2.73a.55.55,0,0,0,.13-.43.57.57,0,0,0-.29-.32l.09-.13.32.23.45.3.46.28.36.21-.09.13a.63.63,0,0,0-.41-.13.58.58,0,0,0-.33.29l-1.28,2a1,1,0,0,0-.18.48.52.52,0,0,0,.27.37l-.08.13a4.44,4.44,0,0,0-.38-.27,3.46,3.46,0,0,0-.41-.23A2.93,2.93,0,0,0,286.59,425.34Z" transform="translate(-269.83 -359.79)"/><path d="M284.07,423.54a2.31,2.31,0,0,1-.34-.36,1.25,1.25,0,0,1-.21-.39.83.83,0,0,1,0-.38.69.69,0,0,1,.14-.33.47.47,0,0,1,.32-.19.44.44,0,0,1,.34.1.49.49,0,0,1,.19.3.36.36,0,0,1-.09.33.4.4,0,0,1-.29.18.5.5,0,0,1-.3,0,.51.51,0,0,0,.07.3.77.77,0,0,0,.23.28.73.73,0,0,0,.37.16,1.08,1.08,0,0,0,.46-.05,2,2,0,0,0,.53-.31,3.35,3.35,0,0,0,.58-.6,2.79,2.79,0,0,0,.5-.88,1,1,0,0,0,0-.65,1,1,0,0,0-.64-.62,1.18,1.18,0,0,0-.43,0,1.33,1.33,0,0,0-.51.15l-.08-.13a1.92,1.92,0,0,1,.52-.24,1.42,1.42,0,0,1,.62-.05,1.49,1.49,0,0,1,.65.31,1.61,1.61,0,0,1,.53.71,1.7,1.7,0,0,1,.06.9,2.41,2.41,0,0,1-.5,1,2.55,2.55,0,0,1-.86.73,1.66,1.66,0,0,1-.94.17A1.72,1.72,0,0,1,284.07,423.54Z" transform="translate(-269.83 -359.79)"/><path d="M278.39,419.92a2.79,2.79,0,0,1-.82-2,2.57,2.57,0,0,1,1-1.76,3.06,3.06,0,0,1,1.31-.68,2.37,2.37,0,0,1,1.34.12,3.12,3.12,0,0,1,1.24.94s.11.13.19.23l.25.31.23.28c.12.15.25.29.37.42l.3.33-.11.1a1.39,1.39,0,0,0-.3-.25.23.23,0,0,0-.24,0,1.18,1.18,0,0,0-.34.23L280,420.59a1.92,1.92,0,0,0-.29.29.28.28,0,0,0,0,.25,1.25,1.25,0,0,0,.2.33l-.11.09-.28-.35-.35-.42-.4-.45C278.6,420.17,278.48,420,278.39,419.92Zm.19,0c.15.18.27.27.38.26a.82.82,0,0,0,.47-.25l2.85-2.43a.89.89,0,0,0,.33-.42.64.64,0,0,0-.2-.43,2,2,0,0,0-1-.7,1.53,1.53,0,0,0-1,.11,4.51,4.51,0,0,0-1.17.77,4.34,4.34,0,0,0-.94,1,1.48,1.48,0,0,0-.23,1A2,2,0,0,0,278.58,419.93Z" transform="translate(-269.83 -359.79)"/><path d="M276.08,414.54a1.35,1.35,0,0,1-.22-1.09,1.84,1.84,0,0,1,.87-1l1.38,2.2-.12.08-1-1.53a3.46,3.46,0,0,0-.54.41,1.22,1.22,0,0,0-.31.45.43.43,0,0,0,0,.41.68.68,0,0,0,.59.3,2.23,2.23,0,0,0,1.07-.34l0,0,.2-.11.22-.12a2,2,0,0,0,.65-.6,1.25,1.25,0,0,0,.23-.63.86.86,0,0,0-.13-.53,1.48,1.48,0,0,0-.26-.3,1,1,0,0,0-.38-.19,1.43,1.43,0,0,0-.52,0l0-.16a2.14,2.14,0,0,1,.57,0,1.47,1.47,0,0,1,.6.2,1.43,1.43,0,0,1,.49.49,1.77,1.77,0,0,1,.29.9,1.53,1.53,0,0,1-.26.87,2.32,2.32,0,0,1-.78.74,2.66,2.66,0,0,1-1.08.42,1.74,1.74,0,0,1-.94-.13A1.69,1.69,0,0,1,276.08,414.54Z" transform="translate(-269.83 -359.79)"/><path d="M274.31,411.33a1.23,1.23,0,0,1-.14-.52,1.31,1.31,0,0,1,0-.36c.05-.2-.08-.26-.36-.16l-.08-.15.47-.2.71-.33.07.15a2.42,2.42,0,0,0-.42.37,1.13,1.13,0,0,0-.25.47.81.81,0,0,0,.07.56.62.62,0,0,0,.31.31.5.5,0,0,0,.44,0,.58.58,0,0,0,.29-.29,1.84,1.84,0,0,0,.13-.45c0-.17.05-.35.07-.55s.08-.42.12-.61a1.56,1.56,0,0,1,.22-.49,1,1,0,0,1,.41-.35.88.88,0,0,1,.61-.08,1.15,1.15,0,0,1,.54.27,2,2,0,0,1,.4.54,1.52,1.52,0,0,1,.11.32,1.87,1.87,0,0,1,0,.3c0,.07,0,.13,0,.19a1.1,1.1,0,0,0,0,.18.09.09,0,0,0,.07.12.68.68,0,0,0,.26,0l.07.15-.54.23-.83.39-.07-.15a4.32,4.32,0,0,0,.59-.45,1.13,1.13,0,0,0,.31-.5.89.89,0,0,0-.09-.58.66.66,0,0,0-.18-.23.5.5,0,0,0-.29-.12.67.67,0,0,0-.39.08.74.74,0,0,0-.39.44,4.88,4.88,0,0,0-.15.73c0,.2-.07.4-.11.59a1.69,1.69,0,0,1-.2.5,1,1,0,0,1-.41.36.94.94,0,0,1-.57.1,1,1,0,0,1-.48-.25A1.48,1.48,0,0,1,274.31,411.33Z" transform="translate(-269.83 -359.79)"/><path d="M271.39,409.05a.58.58,0,0,1,0-.41.46.46,0,0,1,.28-.28.51.51,0,0,1,.4,0,.58.58,0,0,1,.28.73.5.5,0,0,1-.29.28.48.48,0,0,1-.39,0A.59.59,0,0,1,271.39,409.05Zm1.53-1.05,3.05-1.15a.6.6,0,0,0,.36-.27.63.63,0,0,0-.05-.43l.15,0c0,.08.07.2.12.37l.18.52.21.5.16.38-.15.05a.62.62,0,0,0-.25-.35.57.57,0,0,0-.45,0l-2.2.83a.92.92,0,0,0-.43.28.5.5,0,0,0,0,.45l-.14.06c-.05-.15-.09-.3-.15-.44a3.63,3.63,0,0,0-.19-.44A2.33,2.33,0,0,0,272.92,408Z" transform="translate(-269.83 -359.79)"/><path d="M272.41,404.21l0,.15a1.08,1.08,0,0,1-.53-.23.9.9,0,0,1-.33-.46.48.48,0,0,1,0-.36.5.5,0,0,1,.63-.17.39.39,0,0,1,.16.23.31.31,0,0,1,0,.23.37.37,0,0,1-.22.18.9.9,0,0,1-.47,0v-.09a1.21,1.21,0,0,0,.36.36A1,1,0,0,0,272.41,404.21Zm2,.63a1.7,1.7,0,0,1,.06.7,1,1,0,0,1-.24.58,1.18,1.18,0,0,1-.61.35,1.19,1.19,0,0,1-.7,0,1,1,0,0,1-.5-.38,1.65,1.65,0,0,1-.3-.64,2,2,0,0,1-.07-.71,1.06,1.06,0,0,1,.25-.57,1.15,1.15,0,0,1,.61-.35,1.19,1.19,0,0,1,.7,0,1,1,0,0,1,.5.37A1.86,1.86,0,0,1,274.38,404.84Zm-.13,0a.43.43,0,0,0-.32-.33,1.59,1.59,0,0,0-.83.07,1.84,1.84,0,0,0-.77.35.47.47,0,0,0,.21.78,1.63,1.63,0,0,0,.84-.07,1.52,1.52,0,0,0,.76-.36A.45.45,0,0,0,274.25,404.87Zm3.05-.77a3.71,3.71,0,0,1,.12.77,1.45,1.45,0,0,1-.09.62.56.56,0,0,1-.37.32.58.58,0,0,1-.47-.09,1.45,1.45,0,0,1-.43-.5l.1-.08a.49.49,0,0,0,.28.18.66.66,0,0,0,.34,0,.55.55,0,0,0,.41-.43,1.66,1.66,0,0,0,0-.82,2.7,2.7,0,0,0-.25-.6,1.13,1.13,0,0,0-.4-.41A.71.71,0,0,0,276,403a.51.51,0,0,0-.34.27,1,1,0,0,0,0,.7l.14.51a3,3,0,0,1,.08.48.76.76,0,0,1-.08.4.53.53,0,0,1-.32.23.78.78,0,0,1-.55-.09,2.22,2.22,0,0,1-.65-.61l0-.1a3.13,3.13,0,0,0,.33.31.39.39,0,0,0,.34.08c.15,0,.2-.17.14-.39l-.23-.87a2.06,2.06,0,0,1-.07-.64,1,1,0,0,1,.17-.52.81.81,0,0,1,.47-.3,1.13,1.13,0,0,1,.7.05,1.54,1.54,0,0,1,.66.53A3.16,3.16,0,0,1,277.3,404.1Z" transform="translate(-269.83 -359.79)"/><path d="M271,400a1.33,1.33,0,0,1,0-.5.88.88,0,0,1,.17-.35.76.76,0,0,1,.34-.23,2.26,2.26,0,0,1,.6-.13l2-.26a.6.6,0,0,0,.41-.18.67.67,0,0,0,.06-.43l.15,0c0,.09,0,.22,0,.4l.06.53c0,.17,0,.34.08.5s.05.29.06.37l-.15,0a.5.5,0,0,0-.16-.34.62.62,0,0,0-.44-.05l-2.2.29a1.59,1.59,0,0,0-.39.08.52.52,0,0,0-.26.2.52.52,0,0,0-.06.37.77.77,0,0,0,.22.46,1.06,1.06,0,0,0,.47.28,1.42,1.42,0,0,0,.62.05l1.79-.23a.58.58,0,0,0,.41-.17.45.45,0,0,0,.07-.36l.16,0a3.18,3.18,0,0,0,0,.36c0,.16,0,.33,0,.5s.05.35.08.53,0,.32.07.41l-.16,0a.6.6,0,0,0-.16-.4.57.57,0,0,0-.44-.07l-2.34.3a.89.89,0,0,0-.48.18.46.46,0,0,0-.1.44l-.16,0a3.42,3.42,0,0,0,0-.46c0-.17-.05-.33-.08-.47a3.14,3.14,0,0,0-.13-.4l.81-.1a1.25,1.25,0,0,1-.72-.45A1.6,1.6,0,0,1,271,400Z" transform="translate(-269.83 -359.79)"/><path d="M272.59,394.71a.78.78,0,0,1,.12-.4.86.86,0,0,1,.3-.27.73.73,0,0,1,.41-.09.69.69,0,0,1,.39.12.74.74,0,0,1,.28.3.68.68,0,0,1,.09.4.78.78,0,0,1-.12.4.77.77,0,0,1-.3.27.71.71,0,0,1-.4.09.7.7,0,0,1-.4-.12.86.86,0,0,1-.28-.29A.73.73,0,0,1,272.59,394.71Z" transform="translate(-269.83 -359.79)"/><path d="M269.83,390.49c0-.11.06-.26.1-.43s.08-.36.12-.53.09-.46.13-.68l.09-.45a2.13,2.13,0,0,1,.69-1.31,1.32,1.32,0,0,1,1.14-.25,2,2,0,0,1,.54.21,1.46,1.46,0,0,1,.47.43,1.71,1.71,0,0,1,.27.7,2.8,2.8,0,0,1-.05,1l-.15.72-.15,0,.14-.65a1.27,1.27,0,0,0-.05-.79,1,1,0,0,0-.45-.46,2.65,2.65,0,0,0-.67-.24,1.87,1.87,0,0,0-1.1,0,1,1,0,0,0-.52.79.5.5,0,0,0,0,.44.89.89,0,0,0,.48.21l3.63.75a1,1,0,0,0,.42,0,.34.34,0,0,0,.23-.18,2.37,2.37,0,0,0,.15-.47l.15,0c0,.13-.08.3-.13.51s-.09.42-.13.65-.08.38-.12.56-.06.33-.07.46l-.15,0a1.39,1.39,0,0,0,0-.39.25.25,0,0,0-.14-.2,1.12,1.12,0,0,0-.39-.12l-3.64-.76a1.35,1.35,0,0,0-.41,0,.27.27,0,0,0-.21.13,1.05,1.05,0,0,0-.13.36Z" transform="translate(-269.83 -359.79)"/><path d="M270.82,384.2l2.57.92a1.22,1.22,0,0,1-.44-.72,1.69,1.69,0,0,1,.07-.74,1.32,1.32,0,0,1,.24-.43.92.92,0,0,1,.31-.23.7.7,0,0,1,.41-.06,2.51,2.51,0,0,1,.6.14l1.89.68a.58.58,0,0,0,.44,0,.62.62,0,0,0,.25-.36l.15.06c0,.08-.09.21-.16.37s-.13.33-.18.49-.12.33-.17.49-.08.28-.1.36l-.15-.06a.43.43,0,0,0,0-.37.63.63,0,0,0-.36-.25l-2.09-.74a2.24,2.24,0,0,0-.39-.1.44.44,0,0,0-.32.06.53.53,0,0,0-.23.3.81.81,0,0,0,0,.51,1.06,1.06,0,0,0,.28.46,1.32,1.32,0,0,0,.54.32l1.71.61a.66.66,0,0,0,.44.05.46.46,0,0,0,.22-.3l.15.05-.14.34-.18.47c-.06.16-.11.33-.17.51l-.12.39-.15-.05a.62.62,0,0,0,0-.43.58.58,0,0,0-.36-.26l-4-1.44a.81.81,0,0,0-.51-.06.49.49,0,0,0-.29.34l-.15-.05a3.93,3.93,0,0,0,.18-.43,4.45,4.45,0,0,0,.13-.45A2.3,2.3,0,0,0,270.82,384.2Z" transform="translate(-269.83 -359.79)"/><path d="M274.73,379.83a1.76,1.76,0,0,1,.6-.69,1.46,1.46,0,0,1,.87-.25,2.57,2.57,0,0,1,1.15.33,2.65,2.65,0,0,1,.94.75,1.48,1.48,0,0,1,.29.85,1.85,1.85,0,0,1-.23.89,2,2,0,0,1-.59.7,1.48,1.48,0,0,1-.87.25,2.6,2.6,0,0,1-1.15-.33,2.77,2.77,0,0,1-.94-.75,1.48,1.48,0,0,1-.29-.86A1.83,1.83,0,0,1,274.73,379.83Zm.13.07a.72.72,0,0,0,.11.77,3.05,3.05,0,0,0,1.17.89,3,3,0,0,0,1.4.44.67.67,0,0,0,.58-1.12A3,3,0,0,0,277,380a3.11,3.11,0,0,0-1.4-.45A.75.75,0,0,0,274.86,379.9Z" transform="translate(-269.83 -359.79)"/><path d="M275.77,375.84l1,.69.57-.86.13.08-.57.86,2.46,1.63a.63.63,0,0,0,.42.14.37.37,0,0,0,.28-.2.44.44,0,0,0,.07-.37,1.36,1.36,0,0,0-.3-.52l.12-.09a1.61,1.61,0,0,1,.39.64.84.84,0,0,1-.15.71,1.15,1.15,0,0,1-.29.32.89.89,0,0,1-.31.15.94.94,0,0,1-.47,0,3.2,3.2,0,0,1-.57-.3l-2.1-1.39-.38.57-.13-.08.38-.57-.91-.61c.08-.13.15-.26.21-.38A1.82,1.82,0,0,0,275.77,375.84Z" transform="translate(-269.83 -359.79)"/><path d="M278.84,373.61a1.81,1.81,0,0,1,.73-.55,1.4,1.4,0,0,1,.91-.06,3.14,3.14,0,0,1,1.81,1.49,1.51,1.51,0,0,1,.11.9,1.92,1.92,0,0,1-.41.82,1.84,1.84,0,0,1-.73.55,1.43,1.43,0,0,1-.9.07,2.49,2.49,0,0,1-1.05-.57,2.55,2.55,0,0,1-.76-.92,1.39,1.39,0,0,1-.11-.91A1.9,1.9,0,0,1,278.84,373.61Zm.12.1a.7.7,0,0,0-.06.77,3.08,3.08,0,0,0,1,1.12,3,3,0,0,0,1.27.72.72.72,0,0,0,.74-.21.73.73,0,0,0,.07-.77,4.35,4.35,0,0,0-2.24-1.84A.72.72,0,0,0,279,373.71Z" transform="translate(-269.83 -359.79)"/><path d="M283.26,372.33a1.68,1.68,0,0,1-.59.39,1.06,1.06,0,0,1-.63.06,1.24,1.24,0,0,1-.59-.37,1.15,1.15,0,0,1-.33-.62,1,1,0,0,1,.09-.62,2.2,2.2,0,0,1,.42-.57,1.92,1.92,0,0,1,.6-.39,1,1,0,0,1,.62,0,1.22,1.22,0,0,1,.6.37,1.15,1.15,0,0,1,.33.62,1.09,1.09,0,0,1-.09.61A1.86,1.86,0,0,1,283.26,372.33Zm-.09-.09a.47.47,0,0,0,.14-.45,1.67,1.67,0,0,0-.46-.69,1.73,1.73,0,0,0-.67-.51.47.47,0,0,0-.59.55,1.71,1.71,0,0,0,.46.71,1.53,1.53,0,0,0,.68.49A.46.46,0,0,0,283.17,372.24Zm-.3-1.94-.13.05a1,1,0,0,1-.05-.58.83.83,0,0,1,.25-.5.45.45,0,0,1,.32-.15.42.42,0,0,1,.32.16.39.39,0,0,1,.13.32.35.35,0,0,1-.12.25.34.34,0,0,1-.22.09.35.35,0,0,1-.26-.11,1,1,0,0,1-.23-.41l.08,0a1.28,1.28,0,0,0-.14.48A1.36,1.36,0,0,0,282.87,370.3Zm2.42,4.25a3.71,3.71,0,0,1-.62.48,1.38,1.38,0,0,1-.59.2.53.53,0,0,1-.45-.16.61.61,0,0,1-.15-.46,1.47,1.47,0,0,1,.24-.62l.12.05a.54.54,0,0,0,0,.33.65.65,0,0,0,.17.3.56.56,0,0,0,.57.16,1.53,1.53,0,0,0,.71-.42,2.42,2.42,0,0,0,.41-.51,1.14,1.14,0,0,0,.17-.54.72.72,0,0,0-.21-.5.54.54,0,0,0-.4-.17,1.05,1.05,0,0,0-.61.35l-.38.36a2.49,2.49,0,0,1-.38.3.74.74,0,0,1-.39.12.51.51,0,0,1-.36-.17.77.77,0,0,1-.18-.53,2.16,2.16,0,0,1,.23-.86l.11,0q-.07.24-.12.45a.38.38,0,0,0,.09.33q.17.18.42-.06l.65-.61a2.17,2.17,0,0,1,.52-.37,1.06,1.06,0,0,1,.54-.1.78.78,0,0,1,.49.27,1.11,1.11,0,0,1,.29.64,1.55,1.55,0,0,1-.16.84A2.92,2.92,0,0,1,285.29,374.55Z" transform="translate(-269.83 -359.79)"/><path d="M285.74,367.2a.7.7,0,0,1,.35-.15.61.61,0,0,1,.33.05.67.67,0,0,1,.25.2.56.56,0,0,1,.11.37.44.44,0,0,1-.19.34.53.53,0,0,1-.32.1.42.42,0,0,1-.29-.17.5.5,0,0,1-.1-.28.81.81,0,0,1,.05-.27.23.23,0,0,0-.17.07.59.59,0,0,0-.22.33,1,1,0,0,0-.05.43,1.72,1.72,0,0,0,.09.44,1.52,1.52,0,0,0,.19.36l1,1.38a.55.55,0,0,0,.46.28,1.19,1.19,0,0,0,.52-.24l.1.13-.41.28-.55.39-.42.33-.32.26-.1-.13a.57.57,0,0,0,.27-.33.6.6,0,0,0-.15-.42l-1.41-1.89a.87.87,0,0,0-.39-.33.51.51,0,0,0-.44.12l-.09-.12.38-.26a4,4,0,0,0,.37-.31,2,2,0,0,0,.28-.31l.52.7a2,2,0,0,1-.06-.48,1.37,1.37,0,0,1,.09-.49A.9.9,0,0,1,285.74,367.2Z" transform="translate(-269.83 -359.79)"/><path d="M289.78,369.37a1.06,1.06,0,0,1-.53.17.81.81,0,0,1-.46-.11,1.18,1.18,0,0,1-.34-.36.88.88,0,0,1-.14-.54,1.07,1.07,0,0,1,.17-.48,3.28,3.28,0,0,1,.32-.44l.35-.4a1.43,1.43,0,0,0,.25-.35.33.33,0,0,0,0-.32l-.26-.44a1,1,0,0,0-.29-.33.52.52,0,0,0-.31-.08.82.82,0,0,0-.34.12,1.22,1.22,0,0,0-.29.23.53.53,0,0,0-.17.32.5.5,0,0,1,.32,0,.49.49,0,0,1,.26.23.41.41,0,0,1,.05.35.5.5,0,0,1-.24.28.39.39,0,0,1-.37,0,.53.53,0,0,1-.27-.24.48.48,0,0,1-.08-.33,1,1,0,0,1,.11-.35,1.6,1.6,0,0,1,.29-.4,2.47,2.47,0,0,1,.5-.39,2,2,0,0,1,.52-.22.9.9,0,0,1,.46,0,.86.86,0,0,1,.43.25,3.39,3.39,0,0,1,.37.51l1,1.79a.51.51,0,0,0,.18.2.15.15,0,0,0,.17,0,.29.29,0,0,0,.11-.11.74.74,0,0,0,.09-.18l.13.07a2.15,2.15,0,0,1-.17.34,1,1,0,0,1-.32.27.92.92,0,0,1-.37.13.43.43,0,0,1-.3-.08.68.68,0,0,1-.24-.26,1.44,1.44,0,0,1-.16.64A1.2,1.2,0,0,1,289.78,369.37Zm.13-.49a.74.74,0,0,0,.28-.3,1.31,1.31,0,0,0,.11-.48l-.75-1.29a.85.85,0,0,1-.11.3l-.2.32a2.37,2.37,0,0,0-.19.35,1,1,0,0,0-.08.39.94.94,0,0,0,.14.45.68.68,0,0,0,.36.32A.5.5,0,0,0,289.91,368.88Z" transform="translate(-269.83 -359.79)"/><path d="M291.67,363.86l1.79,4.24c.09.2.2.31.34.33a1,1,0,0,0,.53-.1l.06.15-.45.17-.62.24-.44.2-.33.17-.06-.15a.55.55,0,0,0,.3-.24.52.52,0,0,0-.05-.39L291.27,365a.84.84,0,0,0-.29-.42.5.5,0,0,0-.46,0l-.06-.15a2.73,2.73,0,0,0,.43-.16,3.45,3.45,0,0,0,.43-.2A3.53,3.53,0,0,0,291.67,363.86Zm1.09-.48a1.22,1.22,0,0,1,.73-.08,1.38,1.38,0,0,1,.69.39,2.43,2.43,0,0,1,.57.87,3.22,3.22,0,0,1,.23.83,2.2,2.2,0,0,1,0,.77,1.7,1.7,0,0,1-.31.65,1.56,1.56,0,0,1-.64.46,1.14,1.14,0,0,1-.59.1.81.81,0,0,1-.47-.2l0-.12a.85.85,0,0,0,.37.18.82.82,0,0,0,.45-.07.77.77,0,0,0,.47-.46,1.45,1.45,0,0,0,0-.75,5.31,5.31,0,0,0-.3-.94,4.11,4.11,0,0,0-.47-.88,1.14,1.14,0,0,0-.46-.41.59.59,0,0,0-.47,0,.86.86,0,0,0-.46.49,1.24,1.24,0,0,0,0,.87L292,365a1.4,1.4,0,0,1,.08-1A1.18,1.18,0,0,1,292.76,363.38Z" transform="translate(-269.83 -359.79)"/><path d="M295.69,360.35l.71,2.64a1.23,1.23,0,0,1,.34-.77,1.67,1.67,0,0,1,.65-.36,1.32,1.32,0,0,1,.5-.05,1,1,0,0,1,.36.12.87.87,0,0,1,.29.31,2.92,2.92,0,0,1,.21.57l.52,1.94a.55.55,0,0,0,.23.38.62.62,0,0,0,.43,0l0,.16-.4.08-.51.13-.49.14-.35.11,0-.15a.48.48,0,0,0,.32-.2.73.73,0,0,0,0-.44l-.58-2.14a1.6,1.6,0,0,0-.13-.37.59.59,0,0,0-.23-.24.54.54,0,0,0-.38,0,.84.84,0,0,0-.43.27,1.2,1.2,0,0,0-.22.5,1.52,1.52,0,0,0,0,.63l.47,1.75a.64.64,0,0,0,.21.39.48.48,0,0,0,.38,0l0,.15-.36.08-.49.12a4.91,4.91,0,0,0-.51.15l-.39.12,0-.15a.6.6,0,0,0,.37-.22.58.58,0,0,0,0-.44l-1.11-4.13a.74.74,0,0,0-.24-.45.48.48,0,0,0-.45-.05l0-.15.46-.1a3,3,0,0,0,.45-.15A1.82,1.82,0,0,0,295.69,360.35Z" transform="translate(-269.83 -359.79)"/><path d="M303.09,361l0,.15a.43.43,0,0,0-.24.18,1.22,1.22,0,0,0-.18.45L302,365l-.15.21L299.89,362a.72.72,0,0,0-.32-.32.52.52,0,0,0-.23,0l0-.16.4,0,.43-.05.51-.08.47-.1,0,.16-.31.07a.22.22,0,0,0-.16.16.71.71,0,0,0,.12.39l1.23,2.14,0,0,.48-2.1a1.07,1.07,0,0,0,0-.49.38.38,0,0,0-.19-.25.83.83,0,0,0-.41-.06l0-.14.23,0,.22,0,.2,0,.31-.05ZM302,365l-.17.74a1.82,1.82,0,0,1-.11.33,1,1,0,0,1-.14.23.73.73,0,0,1-.26.19,1.68,1.68,0,0,1-.32.09,1,1,0,0,1-.3,0,.52.52,0,0,1-.25-.14.38.38,0,0,1-.12-.26.41.41,0,0,1,.08-.33.49.49,0,0,1,.32-.16.47.47,0,0,1,.33.06.34.34,0,0,1,.16.27.38.38,0,0,1,0,.24.55.55,0,0,1-.16.18h.08a.58.58,0,0,0,.36-.19,1.08,1.08,0,0,0,.21-.48l.17-.75Z" transform="translate(-269.83 -359.79)"/><path d="M307.14,361.55a1.17,1.17,0,0,1,.58.18,1.13,1.13,0,0,1,.4.44,1.08,1.08,0,0,1,.14.59,1.09,1.09,0,0,1-.17.58,1.24,1.24,0,0,1-.44.41,1.1,1.1,0,0,1-.6.13,1,1,0,0,1-.57-.17,1.15,1.15,0,0,1-.41-.44,1.2,1.2,0,0,1-.14-.59,1.17,1.17,0,0,1,.18-.58,1.21,1.21,0,0,1,.43-.41A1.11,1.11,0,0,1,307.14,361.55Z" transform="translate(-269.83 -359.79)"/></svg>